<svg width="48" height="48" viewBox="0 0 48 48" fill="none" xmlns="http://www.w3.org/2000/svg">
<path d="M35 44V38H29V35H35V29H38V35H44V38H38V44H35ZM9 40C8.2 40 7.5 39.7 6.9 39.1C6.3 38.5 6 37.8 6 37V10C6 9.2 6.3 8.5 6.9 7.9C7.5 7.3 8.2 7 9 7H12.25V4H15.5V7H28.5V4H31.75V7H35C35.8 7 36.5 7.3 37.1 7.9C37.7 8.5 38 9.2 38 10V25.1C37.5 25.0333 37 25 36.5 25C36 25 35.5 25.0333 35 25.1V19.5H9V37H25C25 37.5 25.05 38 25.15 38.5C25.25 39 25.3833 39.5 25.55 40H9ZM9 16.5H35V10H9V16.5Z" fill="white"/>
</svg>
