<svg width="117" height="117" viewBox="0 0 117 117" fill="none" xmlns="http://www.w3.org/2000/svg">
<circle cx="58.5" cy="58.5" r="58.5" fill="#128983"/>
<path d="M53.15 63.5L59 59.95L64.85 63.5L63.3 56.85L68.5 52.35L61.65 51.8L59 45.5L56.35 51.8L49.5 52.35L54.7 56.85L53.15 63.5ZM39 79V42C39 41.2 39.3 40.5 39.9 39.9C40.5 39.3 41.2 39 42 39H76C76.8 39 77.5 39.3 78.1 39.9C78.7 40.5 79 41.2 79 42V68C79 68.8 78.7 69.5 78.1 70.1C77.5 70.7 76.8 71 76 71H47L39 79ZM45.7 68H76V42H42V72L45.7 68Z" fill="white"/>
</svg>
